<svg width="21" height="15" viewBox="0 0 21 15" fill="none" xmlns="http://www.w3.org/2000/svg">
<path d="M3.36917 8.10898L7.75893 12.4988C7.95722 12.6971 8.05509 12.9291 8.05253 13.1949C8.04996 13.4607 7.95209 13.697 7.75893 13.9039C7.55211 14.1107 7.31451 14.2175 7.04613 14.2244C6.77778 14.2312 6.54018 14.1312 6.33333 13.9244L0.361534 7.95258C0.120511 7.71156 0 7.43037 0 7.10902C0 6.78766 0.120511 6.50647 0.361534 6.26545L6.33333 0.293648C6.53162 0.0953593 6.76709 -0.00250678 7.03973 4.87758e-05C7.31238 0.00262655 7.55211 0.107326 7.75893 0.314148C7.95209 0.520992 8.05209 0.755182 8.05893 1.01672C8.06578 1.27825 7.96578 1.51243 7.75893 1.71925L3.36917 6.10905H19.0564C19.3402 6.10905 19.5778 6.20477 19.7692 6.39621C19.9606 6.58766 20.0564 6.82526 20.0564 7.10902C20.0564 7.39277 19.9606 7.63037 19.7692 7.82182C19.5778 8.01326 19.3402 8.10898 19.0564 8.10898H3.36917Z" fill="#DDDDE1"/>
</svg>
