<svg width="176" height="170" viewBox="0 0 176 170" fill="none" xmlns="http://www.w3.org/2000/svg">
<path d="M82.4112 1.90337C77.0779 8.4367 57.4779 12.4367 46.4112 9.37003C41.6112 8.0367 41.3446 8.17004 33.7446 15.9034L26.0112 23.77L28.8112 26.7034C34.5446 32.97 36.5446 38.7034 36.5446 49.1034C36.5446 57.6367 35.8779 60.4367 32.2779 68.3034C26.5446 80.17 26.4112 87.6367 31.6112 95.9034C36.1446 102.97 44.8112 110.837 54.9446 116.837C64.4112 122.57 82.4112 130.437 86.0112 130.437C91.6112 130.437 120.411 114.703 129.078 106.97C143.478 93.9034 145.878 84.3034 138.545 67.77C136.278 62.7034 134.145 55.9034 133.745 52.7034C132.678 45.2367 136.011 33.37 140.811 27.77L144.278 23.6367L136.545 15.77C129.345 8.57003 128.678 8.17004 124.678 9.2367C118.678 10.97 105.345 10.57 99.4779 8.57003C96.8112 7.50336 92.5446 5.2367 90.0112 3.2367C84.5446 -0.896637 84.6779 -0.763306 82.4112 1.90337ZM114.811 17.77C126.411 17.77 128.145 18.0367 130.678 20.7034L133.611 23.6367L129.878 31.9034C126.678 39.2367 126.278 41.2367 126.811 50.97C127.211 59.6367 128.278 63.6367 131.745 71.37C137.478 83.6367 136.811 88.0367 128.278 97.2367C117.478 108.837 90.9446 123.37 83.4779 121.903C78.8112 120.97 60.0112 111.503 52.4112 106.303C44.5446 100.837 36.1446 90.8367 35.0779 85.77C34.5446 82.57 35.3446 78.97 38.5446 71.9034C45.7446 55.2367 46.1446 42.7034 39.7446 29.37L36.9446 23.6367L40.0112 20.3034C42.9446 17.2367 43.7446 17.1034 51.8779 17.9034C61.6112 18.8367 74.8112 16.17 81.4779 12.0367C85.2112 9.6367 85.3446 9.6367 93.4779 13.6367C101.078 17.37 102.945 17.77 114.811 17.77Z" fill="#0561E2"/>
<path d="M67.8779 52.17V70.0367L71.8779 69.37L75.8779 68.8367V51.6367V34.4367H71.8779H67.8779V52.17Z" fill="#0561E2"/>
<path d="M79.8779 51.77V69.1034H83.8779H87.8779V60.7034V52.4367L92.2779 60.4367C95.8779 66.8367 97.6113 68.57 100.945 69.2367C103.345 69.77 105.211 69.6367 105.211 68.97C105.211 68.3034 103.211 64.17 100.678 59.6367L96.1446 51.5034L100.678 43.5034C103.211 39.1034 105.211 35.2367 105.211 34.8367C105.211 34.57 103.211 34.4367 100.945 34.7034C97.0779 35.1034 96.0113 36.17 92.2779 43.1034L88.0113 51.1034L87.8779 42.7034V34.4367H83.8779H79.8779V51.77Z" fill="#0561E2"/>
<path d="M91.878 73.1033C88.9447 73.77 88.5447 74.7033 88.1447 80.3033C87.6114 87.6367 88.8114 89.1033 95.6114 89.1033C97.878 89.1033 99.878 89.6367 99.878 90.4367C99.878 91.1033 97.478 91.77 94.5447 91.77C89.878 91.77 89.2114 92.17 89.2114 94.8367C89.2114 97.6367 89.6114 97.77 96.9447 97.1033L104.545 96.4367V85.1033V73.77L99.878 73.1033C97.3447 72.7033 93.7447 72.7033 91.878 73.1033ZM99.6114 80.7033C99.3447 82.0367 97.878 83.2367 96.1447 83.5033C93.878 83.9033 93.2114 83.2367 93.2114 81.2367C93.2114 79.1033 94.0114 78.4367 96.678 78.4367C99.2114 78.4367 100.011 79.1033 99.6114 80.7033Z" fill="#0561E2"/>
<path d="M67.078 74.8367C66.678 75.9033 66.5447 79.37 66.8113 82.57C67.2113 88.4367 67.2113 88.4367 72.9447 88.8367C80.0113 89.37 80.278 91.77 73.2113 91.77C68.5447 91.77 67.878 92.17 67.878 94.8367C67.878 97.6367 68.278 97.77 75.6113 97.1033L83.2113 96.4367V85.1033V73.77L75.478 73.37C69.7447 73.1033 67.6113 73.5033 67.078 74.8367ZM78.278 80.7033C78.0113 82.0367 76.5447 83.2367 74.8113 83.5033C72.5447 83.9033 71.878 83.2367 71.878 81.2367C71.878 79.1033 72.678 78.4367 75.3447 78.4367C77.878 78.4367 78.678 79.1033 78.278 80.7033Z" fill="#0561E2"/>
<path d="M15.8779 50.0367C15.8779 53.2367 16.1446 55.77 16.4113 55.77C17.4779 55.77 18.0113 47.77 16.9446 46.17C16.4113 45.1034 15.8779 46.7034 15.8779 50.0367Z" fill="#0561E2"/>
<path d="M152.278 51.1033C152.278 54.0367 152.545 55.1033 152.811 53.37C153.078 51.77 153.078 49.37 152.811 48.0367C152.411 46.8367 152.145 48.17 152.278 51.1033Z" fill="#0561E2"/>
<path d="M156.411 48.3033C155.211 51.37 156.411 55.1033 158.545 55.1033C159.878 55.1033 160.545 53.77 160.545 51.2367C160.545 46.97 157.745 44.97 156.411 48.3033Z" fill="#0561E2"/>
<path d="M163.478 47.2367C161.745 48.97 162.545 51.5034 164.945 52.17C167.078 52.7034 167.078 52.8367 164.945 52.97C163.611 52.97 162.545 53.77 162.545 54.57C162.545 55.37 163.611 55.77 164.945 55.5034C166.411 55.2367 167.211 53.77 167.211 51.2367C167.211 47.37 165.345 45.5034 163.478 47.2367Z" fill="#0561E2"/>
<path d="M170.145 47.2367C168.411 49.1033 169.211 51.77 171.611 51.9033C173.611 51.9033 173.611 52.0367 171.345 52.97C169.345 53.77 169.211 54.3033 170.411 54.97C172.811 56.4367 174.811 54.0367 174.278 50.3033C173.878 47.2367 171.745 45.6367 170.145 47.2367Z" fill="#0561E2"/>
<path d="M1.47789 51.37C1.87789 54.8367 6.54456 57.77 6.54456 54.57C6.54456 53.9033 5.47789 52.97 4.27789 52.7033C2.01122 52.17 2.01122 52.0367 4.27789 51.9033C7.47789 51.77 7.07789 47.77 3.74456 47.77C1.61122 47.77 1.07789 48.4367 1.47789 51.37Z" fill="#0561E2"/>
<path d="M8.81131 48.7034C7.21131 50.3033 7.87798 51.77 10.278 51.9034C12.1446 51.9034 12.1446 52.17 9.87798 53.1034C7.34464 54.0367 7.34464 54.17 9.61131 55.1034C13.3446 56.7034 15.878 53.37 12.8113 51.1034C10.4113 49.37 10.4113 49.37 12.8113 48.7034C14.8113 48.17 14.8113 48.0367 12.4113 47.9033C10.9446 47.9033 9.21131 48.17 8.81131 48.7034Z" fill="#0561E2"/>
<path d="M0.0113011 151.37C0.0113011 151.903 1.34463 156.037 2.94463 160.437C6.94463 171.37 9.47797 171.503 13.078 160.97C16.4113 151.103 16.4113 150.437 14.0113 150.437C13.078 150.437 11.478 153.103 10.5446 156.57C8.67797 163.103 7.34463 162.97 5.6113 155.77C4.94463 153.103 3.47797 150.97 2.14463 150.703C0.944634 150.437 -0.122032 150.703 0.0113011 151.37Z" fill="#0561E2"/>
<path d="M22.0112 156.703C17.3446 166.037 16.6779 169.103 18.9446 169.103C20.0112 169.103 21.2112 168.17 21.7446 167.103C22.1446 166.037 23.3446 165.103 24.2779 165.103C25.3446 165.103 26.9446 166.037 27.8779 167.103C28.8112 168.303 31.7446 169.103 34.6779 169.103C38.4112 169.103 39.8779 168.57 39.8779 167.103C39.8779 165.77 38.5446 165.103 35.8779 165.103C33.2112 165.103 31.8779 164.437 31.8779 163.103C31.8779 161.77 33.2112 161.103 35.8779 161.103C38.1446 161.103 39.8779 160.437 39.8779 159.77C39.8779 158.97 38.1446 158.437 35.8779 158.437C33.2112 158.437 31.8779 157.77 31.8779 156.437C31.8779 155.103 33.2112 154.437 35.8779 154.437C38.5446 154.437 39.8779 153.77 39.8779 152.437C39.8779 150.837 38.1446 150.437 32.5446 150.437H25.2112L22.0112 156.703ZM27.8779 158.437C27.8779 159.903 26.9446 161.103 25.8779 161.103C24.1446 161.103 24.0112 160.57 25.2112 158.437C26.0112 156.97 26.9446 155.77 27.2112 155.77C27.6112 155.77 27.8779 156.97 27.8779 158.437Z" fill="#0561E2"/>
<path d="M43.078 152.303C42.678 153.237 42.5447 157.37 42.8113 161.237L43.2113 168.437L48.4113 168.837C54.1447 169.37 55.878 167.903 55.878 162.037C55.878 159.77 55.2113 158.437 53.878 158.437C52.678 158.437 51.878 159.77 51.878 161.903C51.878 164.703 51.3447 165.237 48.9447 164.837C46.4113 164.57 45.878 163.637 45.878 159.77C45.878 155.503 46.278 155.103 50.278 154.703C52.9447 154.437 54.5447 153.503 54.5447 152.303C54.5447 149.77 44.1447 149.637 43.078 152.303Z" fill="#0561E2"/>
<path d="M55.8779 152.437C55.8779 153.503 56.8113 154.437 57.8779 154.437C59.4779 154.437 59.8779 156.17 59.8779 161.77C59.8779 167.37 60.2779 169.103 61.8779 169.103C63.4779 169.103 63.8779 167.37 63.8779 161.77C63.8779 156.17 64.2779 154.437 65.8779 154.437C66.9446 154.437 67.8779 153.503 67.8779 152.437C67.8779 150.97 66.2779 150.437 61.8779 150.437C57.4779 150.437 55.8779 150.97 55.8779 152.437Z" fill="#0561E2"/>
<path d="M69.478 159.37L69.878 168.437L75.6113 168.837C80.0113 169.103 81.2113 168.837 81.2113 167.237C81.2113 165.77 79.878 165.103 77.2113 165.103C73.2113 165.103 73.2113 164.97 73.2113 157.77C73.2113 152.037 72.8113 150.437 71.2113 150.437C69.478 150.437 69.2113 152.037 69.478 159.37Z" fill="#0561E2"/>
<path d="M83.478 151.37C82.9447 151.77 82.5447 156.037 82.5447 160.703V169.237L88.9447 168.837L95.2113 168.437L95.3447 159.37L95.6113 150.437H89.878C86.8113 150.437 83.878 150.837 83.478 151.37ZM89.7447 158.037C87.878 161.37 87.878 161.503 89.7447 159.237C91.7447 156.703 91.878 156.703 91.878 160.837C91.878 164.037 91.3447 165.103 89.478 165.103C87.6113 165.103 86.9447 163.903 86.8113 159.77C86.5447 155.103 86.8113 154.437 89.2113 154.437C91.878 154.437 91.878 154.57 89.7447 158.037Z" fill="#0561E2"/>
<path d="M99.478 151.37C98.9447 151.77 98.5447 156.037 98.5447 160.703C98.5447 167.237 98.9447 169.103 100.545 169.103C101.745 169.103 102.545 167.903 102.545 165.77C102.545 162.97 103.211 162.437 106.545 162.437C109.211 162.437 110.545 161.77 110.545 160.437C110.545 159.103 109.211 158.437 106.545 158.437C103.878 158.437 102.545 157.77 102.545 156.437C102.545 154.97 104.011 154.437 107.878 154.437H113.211V161.77C113.211 167.37 113.611 169.103 115.211 169.103C116.811 169.103 117.211 167.37 117.211 161.77C117.211 156.17 117.611 154.437 119.211 154.437C120.278 154.437 121.211 153.503 121.211 152.437C121.211 150.837 119.211 150.437 110.811 150.437C105.078 150.437 99.878 150.837 99.478 151.37Z" fill="#0561E2"/>
<path d="M123.878 159.637C123.878 170.17 126.145 172.57 126.811 162.703L127.345 156.437L129.078 162.837C130.545 168.17 131.345 169.237 133.745 168.837C136.278 168.437 136.545 167.503 136.945 159.37C137.211 152.037 136.945 150.437 135.211 150.437C133.745 150.437 133.211 152.037 133.078 156.703L132.945 163.103L131.345 157.103C130.145 152.57 129.078 150.97 126.811 150.703C124.011 150.303 123.878 150.703 123.878 159.637Z" fill="#0561E2"/>
<path d="M139.878 159.77C139.878 167.237 140.278 169.103 141.878 169.103C143.478 169.103 143.878 167.237 143.878 159.77C143.878 152.303 143.478 150.437 141.878 150.437C140.278 150.437 139.878 152.303 139.878 159.77Z" fill="#0561E2"/>
<path d="M147.478 151.237C146.945 151.77 146.545 156.037 146.545 160.703C146.545 167.637 146.945 169.103 148.678 169.103C150.545 169.103 150.811 168.17 150.145 163.103C149.078 155.37 150.011 155.37 152.011 163.237C153.345 168.17 154.011 169.237 156.411 168.837C158.945 168.437 159.211 167.503 159.611 159.37C159.878 152.037 159.611 150.437 157.878 150.437C156.411 150.437 155.878 152.037 155.745 156.703L155.611 163.103L154.011 157.103C152.545 151.503 149.745 149.103 147.478 151.237Z" fill="#0561E2"/>
<path d="M163.078 152.303C162.678 153.237 162.545 157.37 162.811 161.237L163.211 168.437H169.211C175.211 168.437 175.211 168.437 175.611 163.37C175.878 159.637 175.611 158.437 174.011 158.437C172.678 158.437 171.878 159.637 171.878 161.77C171.878 164.17 171.211 165.103 169.211 165.103C166.945 165.103 166.545 164.17 166.545 159.77C166.545 154.703 166.811 154.437 170.545 154.437C173.211 154.437 174.545 153.77 174.545 152.437C174.545 149.77 164.145 149.637 163.078 152.303Z" fill="#0561E2"/>
</svg>
